<?xml version="1.0" encoding="UTF-8"?>
<svg width="62px" height="62px" viewBox="0 0 62 62" version="1.1" xmlns="http://www.w3.org/2000/svg" xmlns:xlink="http://www.w3.org/1999/xlink">
    <title>编组 3</title>
    <g id="页面-1" stroke="none" stroke-width="1" fill="none" fill-rule="evenodd">
        <g id="画板" transform="translate(-162.000000, -98.000000)">
            <g id="编组-3" transform="translate(162.000000, 98.000000)">
                <circle id="椭圆形" stroke="#00893D" stroke-width="1.5" cx="31" cy="31" r="30.25"></circle>
                <g id="编组" transform="translate(11.000000, 11.000000)" fill-rule="nonzero">
                    <g id="编组-2" transform="translate(0.000000, 0.000000)">
                        <path d="M13.577773,34.7999878 L9.00657934,35.7178785 C8.14837369,35.8907914 7.34608174,35.3296703 7.21455523,34.4631161 L6.51414165,29.8541624 C6.38261514,28.9884042 5.6539462,27.9473453 4.88488413,27.5267034 L0.792837069,25.2925657 C0.0245709026,24.8727197 -0.229329008,23.9271709 0.226536736,23.1790093 L2.65291273,19.1982327 C3.10838055,18.4500712 3.21961098,17.1841659 2.90044522,16.3681525 L1.20214123,12.0258308 C0.883373447,11.2106133 1.29645829,10.3235643 2.12680657,10.0434017 L6.54478473,8.55344592 C7.37433711,8.27328332 8.27333388,7.37509148 8.55330034,6.5449505 L10.04347,2.12701675 C10.3232375,1.29747272 11.2102954,0.883198157 12.0263171,1.20275869 L16.3684834,2.90024966 C17.1837092,3.21921319 18.4500251,3.10858081 19.1979952,2.65331659 L23.1794088,0.226567009 C23.9269809,-0.228896233 24.8727382,0.0236082903 25.2925884,0.793259626 L27.5273455,4.8844696 C27.9469967,5.65312602 28.9878671,6.38238451 29.854032,6.51410872 L34.463629,7.21411734 C35.3291969,7.34584155 35.8909207,8.14772744 35.718603,9.00632239 L34.8001061,13.5774701 C34.6275894,14.4352692 34.9563063,15.6633684 35.5353413,16.3207955 L38.6161663,19.8210374 C39.1946044,20.4776685 39.1098385,21.4530643 38.4255424,22.000058 L34.7837896,24.9113217 C34.1000904,25.4583153 33.5624434,26.6096086 33.5833364,27.4857137 L33.69397,32.1468 C33.714664,33.0221092 33.0230056,33.7141587 32.1470906,33.6936638 L27.4859575,33.5832304 C26.6108384,33.5627355 25.4587377,34.0993823 24.9115395,34.7836715 L22.0002465,38.4249897 C21.4536453,39.1092789 20.4784388,39.1952379 19.8208061,38.6160096 L16.3215239,35.5348177 C15.6642892,34.9563854 14.4367746,34.6272739 13.577773,34.7999878 Z" id="路径" fill="#997843"></path>
                        <path d="M7.16341712,19.8978434 C7.16341712,26.4914319 12.5086305,31.8365915 19.1022853,31.8365915 C25.6959401,31.8365915 31.0411534,26.4914319 31.0411534,19.8978434 C31.0411534,13.3042548 25.6959401,7.95909522 19.1022853,7.95909522 C12.5086305,7.95909522 7.16341712,13.3042548 7.16341712,19.8978434 L7.16341712,19.8978434 Z" id="路径" fill="#FFDD95"></path>
                        <path d="M12.7348889,18.7039686 C12.7347449,19.6993021 13.2656717,20.6190898 14.1276405,21.1167982 C14.9896093,21.6145065 16.0516403,21.6145065 16.9136091,21.1167982 C17.7755779,20.6190898 18.3065047,19.6993021 18.3063607,18.7039686 C18.3065047,17.708635 17.7755779,16.7888473 16.9136091,16.2911389 C16.0516403,15.7934306 14.9896093,15.7934306 14.1276405,16.2911389 C13.2656717,16.7888473 12.7347449,17.708635 12.7348889,18.7039686 L12.7348889,18.7039686 Z" id="路径" fill="#FFFFFF"></path>
                        <path d="M14.326738,19.4998851 C14.326738,20.1592439 14.8612594,20.6937599 15.5206248,20.6937599 C16.1799903,20.6937599 16.7145117,20.1592439 16.7145117,19.4998851 C16.7145117,18.8405262 16.1799903,18.3060103 15.5206248,18.3060103 C14.8612594,18.3060103 14.326738,18.8405262 14.326738,19.4998851 L14.326738,19.4998851 Z" id="路径" fill="#000000"></path>
                        <path d="M19.8982098,18.7039686 C19.8980658,19.6993021 20.4289926,20.6190898 21.2909614,21.1167982 C22.1529302,21.6145065 23.2149612,21.6145065 24.07693,21.1167982 C24.9388988,20.6190898 25.4698256,19.6993021 25.4696816,18.7039686 C25.4698256,17.708635 24.9388988,16.7888473 24.07693,16.2911389 C23.2149612,15.7934306 22.1529302,15.7934306 21.2909614,16.2911389 C20.4289926,16.7888473 19.8980658,17.708635 19.8982098,18.7039686 L19.8982098,18.7039686 Z" id="路径" fill="#FFFFFF"></path>
                        <path d="M21.4900589,19.4998851 C21.4900589,19.9264155 21.7176124,20.3205458 22.0870023,20.5338111 C22.4563922,20.7470763 22.9114993,20.7470763 23.2808892,20.5338111 C23.650279,20.3205458 23.8778325,19.9264155 23.8778325,19.4998851 C23.8778325,19.0733547 23.650279,18.6792243 23.2808892,18.4659591 C22.9114993,18.2526939 22.4563922,18.2526939 22.0870023,18.4659591 C21.7176124,18.6792243 21.4900589,19.0733547 21.4900589,19.4998851 Z" id="路径" fill="#000000"></path>
                        <path d="M21.8880211,28.6529254 C23.8660926,28.6529254 25.4696816,26.9844853 25.4696816,24.9268421 C25.4696816,22.8691988 23.8660926,21.2007588 21.8880211,21.2007588 C20.9703202,21.2007588 20.0199863,20.6939589 19.1022853,20.6939589 C18.1628953,20.6939589 17.2559393,21.2007588 16.3165494,21.2007588 C14.3384779,21.2007588 12.7348889,22.8691988 12.7348889,24.9268421 C12.7348889,26.9844853 14.3384779,28.6529254 16.3165494,28.6529254 C17.4415887,28.6529254 18.4456475,28.113095 19.1022853,27.2692244 C19.758923,28.113095 20.7629818,28.6529254 21.8880211,28.6529254 Z" id="路径" fill="#FBAD4A"></path>
                        <path d="M19.1022853,23.50633 C20.4211322,23.50633 21.4900589,24.6072815 21.4900589,23.0162444 C21.4900589,21.4252072 20.2961721,20.6937599 19.1022853,20.6937599 C17.9083985,20.6937599 16.7145117,21.5089774 16.7145117,23.0162444 C16.7145117,24.5235113 17.7834383,23.50633 19.1022853,23.50633 Z" id="路径" fill="#595959"></path>
                    </g>
                </g>
            </g>
        </g>
    </g>
</svg>